<svg xmlns="http://www.w3.org/2000/svg" viewBox="0 0 60.601004 60.601004" width="14" height="14" aria-hidden="true"><path d="m 26.953629,17.748626 c 1.145,0 2.07375,-0.93 2.07375,-2.075 0,-1.145 -0.92875,-2.0725 -2.07375,-2.0725 -1.145,0 -2.07375,0.9275 -2.07375,2.0725 0,1.145 0.92875,2.075 2.07375,2.075" fill="currentColor"/><path d="m 51.076131,22.946126 c 0,2.9825 -2.45625,5.205 -5.44,5.205 l -3.79875,0 -18.58875,18.535 -8.26,0.0062 c -2.98375,0 -5.3237503,-2.2225 -5.3237503,-5.205 0,-2.9825 2.3400003,-5.32375 5.3237503,-5.32375 l 3.77,0 5.83,-5.78625 -1.18625,-9.48375 c -0.01375,-0.095 -0.02,-0.19125 -0.02,-0.29 0,-1.07875 0.8025,-1.975 1.8425,-2.11375 0.565,-0.075 1.1425,-0.12 1.72875,-0.12 0.585,0 1.1625,0.04625 1.72875,0.12125 1.04,0.14 1.84125,1.03375 1.84125,2.1125 0,0.09875 -0.0063,0.195 -0.01875,0.29 l -0.51625,4.12125 7.44875,-7.39375 8.19875,-0.0013 c 2.98375,0 5.44,2.3425 5.44,5.32625" fill="currentColor"/><path d="m 19.819879,38.737377 18.67625,-18.54375 7.14,0.0025 c 0.795,0 1.53125,0.3 2.0775,0.845 0.50875,0.51 0.79,1.18625 0.79,1.905 0,1.5 -1.2325,2.63125 -2.8675,2.63125 l -4.86375,0 -18.58875,18.5375 -7.1975,0.0037 c -0.7925,0 -1.5075,-0.27875 -2.015,-0.785 -0.47875,-0.48 -0.7325,-1.11875 -0.7325,-1.84625 0,-0.75625 0.28,-1.4525 0.79,-1.96125 0.5075,-0.5075 1.20375,-0.78875 1.96,-0.78875 l 4.83125,0" fill="var(--marker-bg, #ffffff)"/></svg>
