<svg xmlns="http://www.w3.org/2000/svg" viewBox="0 0 60.601004 60.601004" width="14" height="14" aria-hidden="true"><path d="m 30.284878,14.694878 c 1.77625,0 3.2175,-1.44 3.2175,-3.21625 0,-1.7775004 -1.44125,-3.2175005 -3.2175,-3.2175005 -1.77625,0 -3.21625,1.4400001 -3.21625,3.2175005 0,1.77625 1.44,3.21625 3.21625,3.21625" fill="currentColor"/><path d="m 35.113628,16.102378 c -1.565,-0.29 -3.18,-0.4425 -4.82875,-0.4425 -1.650001,0 -3.263751,0.1525 -4.828751,0.4425 -2.65,0.49 -4.46875,2.875 -4.3275,5.49625 l 0.59875,11.105001 2.60625,0 0,-10.615001 0.805,0 0,29.591253 3.5375,0 1.287501,-18.333752 0.64375,0 1.285,18.333752 3.53875,0 0,-29.591253 0.805,0 0,10.615001 2.60625,0 0.59875,-11.105001 c 0.14,-2.62125 -1.67875,-5.00625 -4.3275,-5.49625" fill="currentColor"/></svg>
